<?xml version="1.0" encoding="utf-8"?>
<svg version="1.1" id="Layer_1"
xmlns="http://www.w3.org/2000/svg"
xmlns:xlink="http://www.w3.org/1999/xlink"
width="551px" height="400px"
xml:space="preserve">
<g id="PathID_109" transform="matrix(1.85819, 0, 0, 0.78313, 119.7, 133.55)" opacity="1">
<radialGradient
id="RadialGradID_2" gradientUnits="userSpaceOnUse" gradientTransform="matrix(-4.0019e-009, 0.0915527, -0.0915527, -4.0019e-009, 75, 75)" spreadMethod ="pad" cx="0" cy="0" r="819.2" fx="0" fy="0" >
<stop  offset="0"  style="stop-color:#2B3C4C;stop-opacity:1" />
<stop  offset="1"  style="stop-color:#141E2A;stop-opacity:1" />
</radialGradient>
<path style="fill:url(#RadialGradID_2) " d="M0 0L150 0L150 150L0 150L0 0" />
</g>
<g id="PathID_110" transform="matrix(1.85819, 0, 0, 0.78313, 119.7, 133.55)" opacity="1">
</g>
<g id="PathID_111" transform="matrix(0.311474, 0, 0, 0.849223, 222.95, 210.1)" opacity="1">
<path style="fill:#FFFFFF;fill-opacity:1" d="M34.2 -34.65L34.2 -22.9L33.2 -22.9Q32.1 -27.5 29.1 -29.95Q26.1 -32.45 22.3 -32.45Q19.15 -32.45 16.5 -30.6Q13.85 -28.8 12.65 -25.85Q11.1 -22.05 11.1 -17.45Q11.1 -12.9 12.2 -9.15Q13.35 -5.4 15.8 -3.5Q18.25 -1.6 22.15 -1.6Q25.35 -1.6 28 -3Q30.65 -4.4 33.6 -7.8L33.6 -4.9Q30.75 -1.9 27.65 -0.55Q24.55 0.75 20.45 0.75Q15 0.75 10.8 -1.4Q6.6 -3.55 4.3 -7.6Q2.05 -11.7 2.05 -16.3Q2.05 -21.15 4.55 -25.5Q7.1 -29.85 11.4 -32.25Q15.7 -34.65 20.55 -34.65Q24.15 -34.65 28.1 -33.1Q30.4 -32.2 31.05 -32.2Q31.85 -32.2 32.4 -32.75Q33 -33.35 33.2 -34.65L34.2 -34.65" />
</g>
<g id="PathID_112" transform="matrix(0.311474, 0, 0, 0.849223, 222.95, 210.1)" opacity="1">
</g>
<g id="PathID_113" transform="matrix(0.311474, 0, 0, 0.849223, 234.95, 210.1)" opacity="1">
<path style="fill:#FFFFFF;fill-opacity:1" d="M14.6 -3.45Q10.3 0.35 6.9 0.35Q4.9 0.35 3.6 -0.95Q2.3 -2.25 2.3 -4.25Q2.3 -6.9 4.55 -9.05Q6.85 -11.2 14.6 -14.75L14.6 -17.1Q14.6 -19.75 14.3 -20.45Q14 -21.15 13.2 -21.65Q12.4 -22.2 11.45 -22.2Q9.8 -22.2 8.8 -21.45Q8.15 -21 8.15 -20.4Q8.15 -19.9 8.85 -19.1Q9.8 -18.05 9.8 -17.05Q9.8 -15.8 8.85 -14.95Q7.95 -14.1 6.5 -14.1Q4.9 -14.1 3.85 -15.05Q2.8 -16 2.8 -17.25Q2.8 -19.05 4.2 -20.7Q5.6 -22.35 8.15 -23.2Q10.7 -24.1 13.45 -24.1Q16.8 -24.1 18.7 -22.65Q20.65 -21.25 21.25 -19.6Q21.6 -18.55 21.6 -14.75L21.6 -5.65Q21.6 -4.05 21.7 -3.65Q21.85 -3.25 22.1 -3.05Q22.35 -2.85 22.7 -2.85Q23.35 -2.85 24.05 -3.75L24.8 -3.15Q23.5 -1.3 22.15 -0.45Q20.8 0.35 19.1 0.35Q17.1 0.35 15.95 -0.55Q14.85 -1.5 14.6 -3.45M14.6 -5.3L14.6 -13.1Q11.55 -11.3 10.1 -9.3Q9.15 -7.9 9.15 -6.55Q9.15 -5.4 9.95 -4.5Q10.55 -3.85 11.7 -3.85Q12.95 -3.85 14.6 -5.3" />
</g>
<g id="PathID_114" transform="matrix(0.311474, 0, 0, 0.849223, 234.95, 210.1)" opacity="1">
</g>
<g id="PathID_115" transform="matrix(0.311474, 0, 0, 0.849223, 243.45, 210.1)" opacity="1">
<path style="fill:#FFFFFF;fill-opacity:1" d="M11.45 -23.4L11.45 -18.05Q13.75 -21.7 15.5 -22.9Q17.25 -24.1 18.9 -24.1Q20.25 -24.1 21.1 -23.2Q21.95 -22.35 21.95 -20.75Q21.95 -19.1 21.1 -18.15Q20.3 -17.25 19.15 -17.25Q17.85 -17.25 16.85 -18.1L15.75 -19.05Q15.5 -19.2 15.2 -19.2Q14.45 -19.2 13.8 -18.65Q12.8 -17.8 12.25 -16.2Q11.45 -13.8 11.45 -10.85L11.45 -5.5L11.5 -4.1Q11.5 -2.65 11.65 -2.25Q11.95 -1.6 12.55 -1.25Q13.15 -0.95 14.55 -0.9L14.55 0L1.9 0L1.9 -0.9Q3.4 -1 3.95 -1.7Q4.5 -2.45 4.5 -5.5L4.5 -18.45Q4.5 -20.45 4.3 -21Q4.05 -21.7 3.55 -22Q3.1 -22.35 1.9 -22.5L1.9 -23.4L11.45 -23.4" />
</g>
<g id="PathID_116" transform="matrix(0.311474, 0, 0, 0.849223, 243.45, 210.1)" opacity="1">
</g>
<g id="PathID_117" transform="matrix(0.311474, 0, 0, 0.849223, 251.05, 210.1)" opacity="1">
<path style="fill:#FFFFFF;fill-opacity:1" d="M24.45 -33.9L24.45 -7Q24.45 -4.3 24.55 -3.8Q24.75 -2.95 25.3 -2.55Q25.9 -2.15 27.3 -2.1L27.3 -1.2L17.45 0.7L17.45 -3Q15.65 -0.85 14.25 -0.05Q12.9 0.7 11.15 0.7Q6.65 0.7 4.05 -3.3Q2 -6.55 2 -11.25Q2 -15.05 3.25 -18Q4.55 -21 6.8 -22.55Q9.1 -24.1 11.7 -24.1Q13.35 -24.1 14.65 -23.4Q15.95 -22.75 17.45 -21.15L17.45 -28.2Q17.45 -30.85 17.2 -31.4Q16.9 -32.15 16.3 -32.5Q15.7 -32.85 14.05 -32.85L14.05 -33.9L24.45 -33.9M17.45 -18.1Q15.6 -21.6 12.95 -21.6Q12 -21.6 11.4 -21.1Q10.5 -20.3 9.9 -18.35Q9.35 -16.4 9.35 -12.4Q9.35 -7.95 9.95 -5.8Q10.6 -3.7 11.75 -2.75Q12.3 -2.3 13.3 -2.3Q15.5 -2.3 17.45 -5.75L17.45 -18.1" />
</g>
<g id="PathID_118" transform="matrix(0.311474, 0, 0, 0.849223, 251.05, 210.1)" opacity="1">
</g>
<g id="PathID_119" transform="matrix(0.311474, 0, 0, 0.849223, 264.95, 210.1)" opacity="1">
<path style="fill:#FFFFFF;fill-opacity:1" d="M35.35 -34.65L35.35 -22.7L34.45 -22.7Q32.75 -27.55 29.4 -30.1Q26.05 -32.65 22.05 -32.65Q18.25 -32.65 15.7 -30.5Q13.2 -28.35 12.15 -24.55Q11.1 -20.75 11.1 -16.75Q11.1 -11.9 12.25 -8.2Q13.4 -4.55 15.95 -2.85Q18.5 -1.15 22.05 -1.15Q23.25 -1.15 24.55 -1.4Q25.85 -1.65 27.2 -2.15L27.2 -9.2Q27.2 -11.2 26.9 -11.75Q26.6 -12.35 25.75 -12.85Q24.9 -13.35 23.65 -13.35L22.8 -13.35L22.8 -14.25L39.35 -14.25L39.35 -13.35Q37.45 -13.2 36.7 -12.8Q35.95 -12.4 35.55 -11.5Q35.35 -11.05 35.35 -9.2L35.35 -2.15Q32.05 -0.7 28.55 0Q25.05 0.75 21.25 0.75Q16.45 0.75 13.25 -0.55Q10.05 -1.85 7.6 -3.95Q5.2 -6.1 3.8 -8.75Q2.05 -12.2 2.05 -16.5Q2.05 -24.1 7.4 -29.35Q12.8 -34.65 21 -34.65Q23.5 -34.65 25.55 -34.2Q26.65 -34 29.1 -33.05Q31.55 -32.15 32 -32.15Q32.7 -32.15 33.3 -32.65Q33.9 -33.15 34.45 -34.65L35.35 -34.65" />
</g>
<g id="PathID_120" transform="matrix(0.311474, 0, 0, 0.849223, 264.95, 210.1)" opacity="1">
</g>
<g id="PathID_121" transform="matrix(0.311474, 0, 0, 0.849223, 277.9, 210.1)" opacity="1">
<path style="fill:#FFFFFF;fill-opacity:1" d="M21.55 -12.55L8.75 -12.55Q8.95 -7.85 11.2 -5.15Q12.9 -3.1 15.35 -3.1Q16.85 -3.1 18.05 -3.9Q19.3 -4.75 20.7 -6.95L21.55 -6.4Q19.65 -2.5 17.35 -0.9Q15.05 0.7 12 0.7Q6.8 0.7 4.15 -3.3Q2 -6.5 2 -11.3Q2 -17.15 5.15 -20.6Q8.3 -24.1 12.55 -24.1Q16.1 -24.1 18.7 -21.15Q21.35 -18.25 21.55 -12.55M15.4 -14.2Q15.4 -18.2 14.95 -19.7Q14.5 -21.2 13.6 -22Q13.05 -22.45 12.2 -22.45Q10.9 -22.45 10.1 -21.15Q8.65 -18.95 8.65 -15.05L8.65 -14.2L15.4 -14.2" />
</g>
<g id="PathID_122" transform="matrix(0.311474, 0, 0, 0.849223, 277.9, 210.1)" opacity="1">
</g>
<g id="PathID_123" transform="matrix(0.311474, 0, 0, 0.849223, 285.5, 210.1)" opacity="1">
<path style="fill:#FFFFFF;fill-opacity:1" d="M11.3 -23.4L11.3 -20.35Q13.05 -22.3 14.7 -23.2Q16.35 -24.1 18.25 -24.1Q20.55 -24.1 22.05 -22.8Q23.55 -21.55 24.05 -19.65Q24.45 -18.25 24.45 -14.2L24.45 -5.1Q24.45 -2.4 24.9 -1.7Q25.4 -1.05 27 -0.9L27 0L15.1 0L15.1 -0.9Q16.45 -1.05 17 -2Q17.45 -2.6 17.45 -5.1L17.45 -15.5Q17.45 -18.35 17.2 -19.1Q17 -19.85 16.45 -20.25Q15.9 -20.7 15.25 -20.7Q13.1 -20.7 11.3 -17.6L11.3 -5.1Q11.3 -2.45 11.75 -1.75Q12.25 -1.05 13.65 -0.9L13.65 0L1.75 0L1.75 -0.9Q3.2 -1.05 3.85 -1.85Q4.3 -2.4 4.3 -5.1L4.3 -18.3Q4.3 -20.95 3.8 -21.6Q3.3 -22.25 1.75 -22.5L1.75 -23.4L11.3 -23.4" />
</g>
<g id="PathID_124" transform="matrix(0.311474, 0, 0, 0.849223, 285.5, 210.1)" opacity="1">
</g>
<g id="PathID_125" transform="matrix(0.311474, 0, 0, 0.849223, 294.85, 210.1)" opacity="1">
<path style="fill:#FFFFFF;fill-opacity:1" d="M21.55 -12.55L8.75 -12.55Q8.95 -7.85 11.2 -5.15Q12.9 -3.1 15.35 -3.1Q16.85 -3.1 18.05 -3.9Q19.3 -4.75 20.7 -6.95L21.55 -6.4Q19.65 -2.5 17.35 -0.9Q15.05 0.7 12 0.7Q6.8 0.7 4.15 -3.3Q2 -6.5 2 -11.3Q2 -17.15 5.15 -20.6Q8.3 -24.1 12.55 -24.1Q16.1 -24.1 18.7 -21.15Q21.35 -18.25 21.55 -12.55M15.4 -14.2Q15.4 -18.2 14.95 -19.7Q14.5 -21.2 13.6 -22Q13.05 -22.45 12.2 -22.45Q10.9 -22.45 10.1 -21.15Q8.65 -18.95 8.65 -15.05L8.65 -14.2L15.4 -14.2" />
</g>
<g id="PathID_126" transform="matrix(0.311474, 0, 0, 0.849223, 294.85, 210.1)" opacity="1">
</g>
<g id="PathID_127" transform="matrix(0.311474, 0, 0, 0.849223, 302.5, 210.1)" opacity="1">
<path style="fill:#FFFFFF;fill-opacity:1" d="M11.45 -23.4L11.45 -18.05Q13.75 -21.7 15.5 -22.9Q17.25 -24.1 18.9 -24.1Q20.25 -24.1 21.1 -23.2Q21.95 -22.35 21.95 -20.75Q21.95 -19.1 21.1 -18.15Q20.3 -17.25 19.15 -17.25Q17.85 -17.25 16.85 -18.1L15.75 -19.05Q15.5 -19.2 15.2 -19.2Q14.45 -19.2 13.8 -18.65Q12.8 -17.8 12.25 -16.2Q11.45 -13.8 11.45 -10.85L11.45 -5.5L11.5 -4.1Q11.5 -2.65 11.65 -2.25Q11.95 -1.6 12.55 -1.25Q13.15 -0.95 14.55 -0.9L14.55 0L1.9 0L1.9 -0.9Q3.4 -1 3.95 -1.7Q4.5 -2.45 4.5 -5.5L4.5 -18.45Q4.5 -20.45 4.3 -21Q4.05 -21.7 3.55 -22Q3.1 -22.35 1.9 -22.5L1.9 -23.4L11.45 -23.4" />
</g>
<g id="PathID_128" transform="matrix(0.311474, 0, 0, 0.849223, 302.5, 210.1)" opacity="1">
</g>
<g id="PathID_129" transform="matrix(0.311474, 0, 0, 0.849223, 310.1, 210.1)" opacity="1">
<path style="fill:#FFFFFF;fill-opacity:1" d="M14.6 -3.45Q10.3 0.35 6.9 0.35Q4.9 0.35 3.6 -0.95Q2.3 -2.25 2.3 -4.25Q2.3 -6.9 4.55 -9.05Q6.85 -11.2 14.6 -14.75L14.6 -17.1Q14.6 -19.75 14.3 -20.45Q14 -21.15 13.2 -21.65Q12.4 -22.2 11.45 -22.2Q9.8 -22.2 8.8 -21.45Q8.15 -21 8.15 -20.4Q8.15 -19.9 8.85 -19.1Q9.8 -18.05 9.8 -17.05Q9.8 -15.8 8.85 -14.95Q7.95 -14.1 6.5 -14.1Q4.9 -14.1 3.85 -15.05Q2.8 -16 2.8 -17.25Q2.8 -19.05 4.2 -20.7Q5.6 -22.35 8.15 -23.2Q10.7 -24.1 13.45 -24.1Q16.8 -24.1 18.7 -22.65Q20.65 -21.25 21.25 -19.6Q21.6 -18.55 21.6 -14.75L21.6 -5.65Q21.6 -4.05 21.7 -3.65Q21.85 -3.25 22.1 -3.05Q22.35 -2.85 22.7 -2.85Q23.35 -2.85 24.05 -3.75L24.8 -3.15Q23.5 -1.3 22.15 -0.45Q20.8 0.35 19.1 0.35Q17.1 0.35 15.95 -0.55Q14.85 -1.5 14.6 -3.45M14.6 -5.3L14.6 -13.1Q11.55 -11.3 10.1 -9.3Q9.15 -7.9 9.15 -6.55Q9.15 -5.4 9.95 -4.5Q10.55 -3.85 11.7 -3.85Q12.95 -3.85 14.6 -5.3" />
</g>
<g id="PathID_130" transform="matrix(0.311474, 0, 0, 0.849223, 310.1, 210.1)" opacity="1">
</g>
<g id="PathID_131" transform="matrix(0.311474, 0, 0, 0.849223, 318.6, 210.1)" opacity="1">
<path style="fill:#FFFFFF;fill-opacity:1" d="M11 -32L11 -23.4L16.55 -23.4L16.55 -20.95L11 -20.95L11 -6.45Q11 -4.45 11.15 -3.85Q11.35 -3.25 11.8 -2.9Q12.3 -2.55 12.7 -2.55Q14.35 -2.55 15.8 -5.05L16.55 -4.45Q14.5 0.35 9.95 0.35Q7.75 0.35 6.2 -0.85Q4.65 -2.1 4.25 -3.65Q4 -4.5 4 -8.25L4 -20.95L0.95 -20.95L0.95 -21.8Q4.1 -24.05 6.3 -26.5Q8.5 -28.95 10.15 -32L11 -32" />
</g>
<g id="PathID_132" transform="matrix(0.311474, 0, 0, 0.849223, 318.6, 210.1)" opacity="1">
</g>
<g id="PathID_133" transform="matrix(0.311474, 0, 0, 0.849223, 324.4, 210.1)" opacity="1">
<path style="fill:#FFFFFF;fill-opacity:1" d="M21.55 -12.55L8.75 -12.55Q8.95 -7.85 11.2 -5.15Q12.9 -3.1 15.35 -3.1Q16.85 -3.1 18.05 -3.9Q19.3 -4.75 20.7 -6.95L21.55 -6.4Q19.65 -2.5 17.35 -0.9Q15.05 0.7 12 0.7Q6.8 0.7 4.15 -3.3Q2 -6.5 2 -11.3Q2 -17.15 5.15 -20.6Q8.3 -24.1 12.55 -24.1Q16.1 -24.1 18.7 -21.15Q21.35 -18.25 21.55 -12.55M15.4 -14.2Q15.4 -18.2 14.95 -19.7Q14.5 -21.2 13.6 -22Q13.05 -22.45 12.2 -22.45Q10.9 -22.45 10.1 -21.15Q8.65 -18.95 8.65 -15.05L8.65 -14.2L15.4 -14.2" />
</g>
<g id="PathID_134" transform="matrix(0.311474, 0, 0, 0.849223, 324.4, 210.1)" opacity="1">
</g>
<g id="PathID_135" transform="matrix(0.311474, 0, 0, 0.849223, 336.5, 210.1)" opacity="1">
<path style="fill:#FFFFFF;fill-opacity:1" d="M24.05 -34.65L24.35 -23.35L23.3 -23.35Q22.55 -27.55 19.7 -30.15Q16.85 -32.75 13.55 -32.75Q11 -32.75 9.5 -31.35Q8.05 -30 8.05 -28.25Q8.05 -27.1 8.55 -26.25Q9.3 -25.05 10.9 -23.95Q12.05 -23.1 16.3 -21Q22.3 -18.1 24.35 -15.5Q26.45 -12.9 26.45 -9.55Q26.45 -5.35 23.1 -2.3Q19.75 0.75 14.65 0.75Q13.05 0.75 11.6 0.4Q10.2 0.1 8 -0.8Q6.8 -1.3 6.05 -1.3Q5.4 -1.3 4.65 -0.75Q3.95 -0.25 3.5 0.75L2.6 0.75L2.6 -12.05L3.5 -12.05Q4.6 -6.65 7.75 -3.8Q10.9 -1 14.5 -1Q17.35 -1 19 -2.5Q20.7 -4 20.7 -6.05Q20.7 -7.25 20.05 -8.35Q19.4 -9.45 18.1 -10.45Q16.8 -11.5 13.5 -13.1Q8.85 -15.4 6.8 -17Q4.8 -18.6 3.7 -20.55Q2.65 -22.5 2.65 -24.9Q2.65 -28.95 5.6 -31.8Q8.6 -34.65 13.1 -34.65Q14.75 -34.65 16.3 -34.2Q17.5 -33.9 19.15 -33.1Q20.85 -32.3 21.55 -32.3Q22.2 -32.3 22.55 -32.7Q22.95 -33.1 23.3 -34.65L24.05 -34.65" />
</g>
<g id="PathID_136" transform="matrix(0.311474, 0, 0, 0.849223, 336.5, 210.1)" opacity="1">
</g>
<g id="PathID_137" transform="matrix(0.311474, 0, 0, 0.849223, 345.9, 210.1)" opacity="1">
<path style="fill:#FFFFFF;fill-opacity:1" d="M12.45 1L4.85 -16.35Q3.15 -20.3 2.35 -21.2Q1.55 -22.1 0.4 -22.5L0.4 -23.4L12.85 -23.4L12.85 -22.5Q11.6 -22.45 11.1 -22Q10.6 -21.55 10.6 -20.95Q10.6 -20 11.85 -17.2L15.85 -8L18.55 -15.1Q20.05 -18.9 20.05 -20.4Q20.05 -21.3 19.4 -21.85Q18.8 -22.45 17.25 -22.5L17.25 -23.4L25.1 -23.4L25.1 -22.5Q23.95 -22.35 23.2 -21.55Q22.5 -20.8 20.8 -16.35L14.1 0.95Q11.6 7.45 10.35 8.95Q8.65 11.05 6.05 11.05Q3.95 11.05 2.65 9.85Q1.4 8.7 1.4 7Q1.4 5.55 2.25 4.6Q3.15 3.65 4.45 3.65Q5.7 3.65 6.45 4.45Q7.25 5.25 7.3 6.95Q7.3 7.9 7.55 8.15Q7.7 8.4 8.05 8.4Q8.65 8.4 9.35 7.7Q10.35 6.65 11.7 2.9L12.45 1" />
</g>
<g id="PathID_138" transform="matrix(0.311474, 0, 0, 0.849223, 345.9, 210.1)" opacity="1">
</g>
<g id="PathID_139" transform="matrix(0.311474, 0, 0, 0.849223, 354.4, 210.1)" opacity="1">
<path style="fill:#FFFFFF;fill-opacity:1" d="M16.45 -24L16.85 -16L15.95 -16Q14.4 -19.55 12.8 -20.85Q11.2 -22.2 9.55 -22.2Q8.55 -22.2 7.85 -21.5Q7.15 -20.8 7.15 -19.9Q7.15 -19.25 7.6 -18.6Q8.4 -17.6 12.05 -15.1Q15.75 -12.6 16.9 -10.85Q18.1 -9.15 18.1 -7Q18.1 -5.05 17.1 -3.15Q16.15 -1.3 14.35 -0.3Q12.6 0.7 10.5 0.7Q8.85 0.7 6.05 -0.35Q5.3 -0.65 5.05 -0.65Q4.2 -0.65 3.7 0.6L2.8 0.6L2.4 -7.8L3.3 -7.8Q4.4 -4.5 6.3 -2.85Q8.25 -1.2 10 -1.2Q11.15 -1.2 11.9 -1.9Q12.7 -2.65 12.7 -3.7Q12.7 -4.9 11.95 -5.75Q11.2 -6.65 8.6 -8.45Q4.8 -11.1 3.65 -12.5Q2.05 -14.55 2.05 -17Q2.05 -19.7 3.85 -21.9Q5.7 -24.1 9.2 -24.1Q11.1 -24.1 12.85 -23.1Q13.5 -22.75 13.95 -22.75Q14.4 -22.75 14.65 -22.9Q14.95 -23.1 15.55 -24L16.45 -24" />
</g>
<g id="PathID_140" transform="matrix(0.311474, 0, 0, 0.849223, 354.4, 210.1)" opacity="1">
</g>
<g id="PathID_141" transform="matrix(0.311474, 0, 0, 0.849223, 361.15, 210.1)" opacity="1">
<path style="fill:#FFFFFF;fill-opacity:1" d="M11 -32L11 -23.4L16.55 -23.4L16.55 -20.95L11 -20.95L11 -6.45Q11 -4.45 11.15 -3.85Q11.35 -3.25 11.8 -2.9Q12.3 -2.55 12.7 -2.55Q14.35 -2.55 15.8 -5.05L16.55 -4.45Q14.5 0.35 9.95 0.35Q7.75 0.35 6.2 -0.85Q4.65 -2.1 4.25 -3.65Q4 -4.5 4 -8.25L4 -20.95L0.95 -20.95L0.95 -21.8Q4.1 -24.05 6.3 -26.5Q8.5 -28.95 10.15 -32L11 -32" />
</g>
<g id="PathID_142" transform="matrix(0.311474, 0, 0, 0.849223, 361.15, 210.1)" opacity="1">
</g>
<g id="PathID_143" transform="matrix(0.311474, 0, 0, 0.849223, 366.95, 210.1)" opacity="1">
<path style="fill:#FFFFFF;fill-opacity:1" d="M21.55 -12.55L8.75 -12.55Q8.95 -7.85 11.2 -5.15Q12.9 -3.1 15.35 -3.1Q16.85 -3.1 18.05 -3.9Q19.3 -4.75 20.7 -6.95L21.55 -6.4Q19.65 -2.5 17.35 -0.9Q15.05 0.7 12 0.7Q6.8 0.7 4.15 -3.3Q2 -6.5 2 -11.3Q2 -17.15 5.15 -20.6Q8.3 -24.1 12.55 -24.1Q16.1 -24.1 18.7 -21.15Q21.35 -18.25 21.55 -12.55M15.4 -14.2Q15.4 -18.2 14.95 -19.7Q14.5 -21.2 13.6 -22Q13.05 -22.45 12.2 -22.45Q10.9 -22.45 10.1 -21.15Q8.65 -18.95 8.65 -15.05L8.65 -14.2L15.4 -14.2" />
</g>
<g id="PathID_144" transform="matrix(0.311474, 0, 0, 0.849223, 366.95, 210.1)" opacity="1">
</g>
<g id="PathID_145" transform="matrix(0.311474, 0, 0, 0.849223, 374.55, 210.1)" opacity="1">
<path style="fill:#FFFFFF;fill-opacity:1" d="M11.4 -23.4L11.4 -20.3Q13.35 -22.4 14.95 -23.25Q16.6 -24.1 18.55 -24.1Q20.8 -24.1 22.3 -23Q23.85 -21.95 24.7 -19.8Q26.7 -22.05 28.55 -23.05Q30.4 -24.1 32.4 -24.1Q34.8 -24.1 36.25 -22.95Q37.7 -21.85 38.25 -20.1Q38.8 -18.4 38.8 -14.65L38.8 -5.1Q38.8 -2.4 39.3 -1.75Q39.8 -1.1 41.35 -0.9L41.35 0L29.25 0L29.25 -0.9Q30.7 -1 31.35 -2Q31.8 -2.65 31.8 -5.1L31.8 -15.15Q31.8 -18.25 31.55 -19.1Q31.3 -19.95 30.75 -20.35Q30.25 -20.8 29.5 -20.8Q28.45 -20.8 27.35 -20Q26.25 -19.2 25.1 -17.65L25.1 -5.1Q25.1 -2.55 25.55 -1.9Q26.1 -1 27.75 -0.9L27.75 0L15.6 0L15.6 -0.9Q16.6 -0.95 17.15 -1.35Q17.7 -1.8 17.9 -2.4Q18.1 -3.05 18.1 -5.1L18.1 -15.15Q18.1 -18.3 17.85 -19.1Q17.6 -19.9 17 -20.35Q16.4 -20.85 15.75 -20.85Q14.75 -20.85 13.9 -20.3Q12.75 -19.5 11.4 -17.65L11.4 -5.1Q11.4 -2.6 11.9 -1.8Q12.4 -1.05 13.95 -0.9L13.95 0L1.85 0L1.85 -0.9Q3.35 -1.05 3.95 -1.85Q4.4 -2.4 4.4 -5.1L4.4 -18.3Q4.4 -20.95 3.9 -21.6Q3.4 -22.25 1.85 -22.5L1.85 -23.4L11.4 -23.4" />
</g>
<g id="PathID_146" transform="matrix(0.311474, 0, 0, 0.849223, 374.55, 210.1)" opacity="1">
</g>
<g id="PathID_147" transform="matrix(0.73259, 0, 0, 0.320265, 151.95, 243.05)" opacity="1">
<path style="fill:#FFF6F4;fill-opacity:0.129412" d="M8.2 0L0.1 -26.55L4.8 -26.55L9 -11.2L10.55 -5.5L11.95 -11L16.15 -26.55L20.75 -26.55L24.8 -11.15L26.1 -6.05L27.65 -11.15L32.2 -26.55L36.6 -26.55L28.2 0L23.6 0L19.35 -15.9L18.3 -20.4L12.9 0L8.2 0" />
</g>
<g id="PathID_148" transform="matrix(0.73259, 0, 0, 0.320265, 151.95, 243.05)" opacity="1">
</g>
<g id="PathID_149" transform="matrix(0.73259, 0, 0, 0.320265, 179, 243.05)" opacity="1">
<path style="fill:#FFF6F4;fill-opacity:0.129412" d="M8.2 0L0.1 -26.55L4.8 -26.55L9 -11.2L10.55 -5.5L11.95 -11L16.15 -26.55L20.75 -26.55L24.8 -11.15L26.1 -6.05L27.65 -11.15L32.2 -26.55L36.6 -26.55L28.2 0L23.6 0L19.35 -15.9L18.3 -20.4L12.9 0L8.2 0" />
</g>
<g id="PathID_150" transform="matrix(0.73259, 0, 0, 0.320265, 179, 243.05)" opacity="1">
</g>
<g id="PathID_151" transform="matrix(0.73259, 0, 0, 0.320265, 206.05, 243.05)" opacity="1">
<path style="fill:#FFF6F4;fill-opacity:0.129412" d="M8.2 0L0.1 -26.55L4.8 -26.55L9 -11.2L10.55 -5.5L11.95 -11L16.15 -26.55L20.75 -26.55L24.8 -11.15L26.1 -6.05L27.65 -11.15L32.2 -26.55L36.6 -26.55L28.2 0L23.6 0L19.35 -15.9L18.3 -20.4L12.9 0L8.2 0" />
</g>
<g id="PathID_152" transform="matrix(0.73259, 0, 0, 0.320265, 206.05, 243.05)" opacity="1">
</g>
<g id="PathID_153" transform="matrix(0.73259, 0, 0, 0.320265, 231.05, 243.05)" opacity="1">
<path style="fill:#FFF6F4;fill-opacity:0.129412" d="M4.65 0L4.65 -5.15L9.8 -5.15L9.8 0L4.65 0" />
</g>
<g id="PathID_154" transform="matrix(0.73259, 0, 0, 0.320265, 231.05, 243.05)" opacity="1">
</g>
<g id="PathID_155" transform="matrix(0.73259, 0, 0, 0.320265, 241.4, 243.05)" opacity="1">
<path style="fill:#FFF6F4;fill-opacity:0.129412" d="M20.65 -9.75L25.1 -9.15Q24.35 -4.55 21.35 -1.95Q18.4 0.6 14.05 0.6Q8.65 0.6 5.35 -2.95Q2.05 -6.5 2.05 -13.15Q2.05 -17.45 3.45 -20.65Q4.85 -23.9 7.75 -25.5Q10.65 -27.15 14.05 -27.15Q18.4 -27.15 21.1 -24.95Q23.85 -22.8 24.65 -18.8L20.25 -18.1Q19.6 -20.75 18 -22.1Q16.45 -23.45 14.25 -23.45Q10.9 -23.45 8.8 -21Q6.7 -18.55 6.7 -13.3Q6.7 -7.95 8.7 -5.5Q10.75 -3.1 14 -3.1Q16.65 -3.1 18.4 -4.7Q20.15 -6.35 20.65 -9.75" />
</g>
<g id="PathID_156" transform="matrix(0.73259, 0, 0, 0.320265, 241.4, 243.05)" opacity="1">
</g>
<g id="PathID_157" transform="matrix(0.73259, 0, 0, 0.320265, 260.2, 243.05)" opacity="1">
<path style="fill:#FFF6F4;fill-opacity:0.129412" d="M2.55 2.2L6.95 2.8Q7.2 4.85 8.45 5.8Q10.1 7.05 13 7.05Q16.1 7.05 17.8 5.8Q19.5 4.55 20.1 2.3Q20.45 0.95 20.45 -3.5Q17.5 0 13.1 0Q7.6 0 4.6 -3.95Q1.65 -7.9 1.65 -13.4Q1.65 -17.2 3 -20.4Q4.4 -23.65 7 -25.4Q9.6 -27.15 13.15 -27.15Q17.85 -27.15 20.9 -23.3L20.9 -26.55L25.05 -26.55L25.05 -3.55Q25.05 2.65 23.75 5.2Q22.5 7.8 19.75 9.3Q17.05 10.8 13.05 10.8Q8.3 10.8 5.35 8.65Q2.45 6.55 2.55 2.2M6.3 -13.7Q6.3 -8.5 8.35 -6.1Q10.4 -3.75 13.55 -3.75Q16.65 -3.75 18.75 -6.1Q20.85 -8.5 20.85 -13.6Q20.85 -18.45 18.65 -20.9Q16.5 -23.4 13.45 -23.4Q10.45 -23.4 8.35 -20.95Q6.3 -18.5 6.3 -13.7" />
</g>
<g id="PathID_158" transform="matrix(0.73259, 0, 0, 0.320265, 260.2, 243.05)" opacity="1">
</g>
<g id="PathID_159" transform="matrix(0.73259, 0, 0, 0.320265, 281.05, 243.05)" opacity="1">
<path style="fill:#FFF6F4;fill-opacity:0.129412" d="M1.6 -7.95L6.05 -8.65Q6.4 -5.95 8.1 -4.5Q9.8 -3.1 12.9 -3.1Q16 -3.1 17.5 -4.35Q19 -5.6 19 -7.3Q19 -8.85 17.65 -9.7Q16.75 -10.3 13.1 -11.25Q8.15 -12.5 6.2 -13.4Q4.3 -14.3 3.3 -15.9Q2.35 -17.55 2.35 -19.5Q2.35 -21.25 3.15 -22.75Q3.95 -24.3 5.35 -25.3Q6.4 -26.05 8.2 -26.6Q10.05 -27.15 12.1 -27.15Q15.25 -27.15 17.6 -26.25Q19.95 -25.35 21.05 -23.8Q22.2 -22.25 22.65 -19.7L18.25 -19.1Q17.95 -21.15 16.5 -22.3Q15.05 -23.45 12.45 -23.45Q9.35 -23.45 8 -22.4Q6.7 -21.4 6.7 -20Q6.7 -19.15 7.25 -18.45Q7.8 -17.7 8.95 -17.25L12.95 -16.1Q17.7 -14.8 19.6 -14Q21.5 -13.2 22.55 -11.65Q23.65 -10.1 23.65 -7.8Q23.65 -5.55 22.3 -3.55Q21 -1.55 18.5 -0.45Q16.05 0.6 12.95 0.6Q7.75 0.6 5.05 -1.55Q2.35 -3.7 1.6 -7.95" />
</g>
<g id="PathID_160" transform="matrix(0.73259, 0, 0, 0.320265, 281.05, 243.05)" opacity="1">
</g>
<g id="PathID_161" transform="matrix(0.73259, 0, 0, 0.320265, 299.8, 243.05)" opacity="1">
<path style="fill:#FFF6F4;fill-opacity:0.129412" d="M4.65 0L4.65 -5.15L9.8 -5.15L9.8 0L4.65 0" />
</g>
<g id="PathID_162" transform="matrix(0.73259, 0, 0, 0.320265, 299.8, 243.05)" opacity="1">
</g>
<g id="PathID_163" transform="matrix(0.73259, 0, 0, 0.320265, 310.2, 243.05)" opacity="1">
<path style="fill:#FFF6F4;fill-opacity:0.129412" d="M20.65 -9.75L25.1 -9.15Q24.35 -4.55 21.35 -1.95Q18.4 0.6 14.05 0.6Q8.65 0.6 5.35 -2.95Q2.05 -6.5 2.05 -13.15Q2.05 -17.45 3.45 -20.65Q4.85 -23.9 7.75 -25.5Q10.65 -27.15 14.05 -27.15Q18.4 -27.15 21.1 -24.95Q23.85 -22.8 24.65 -18.8L20.25 -18.1Q19.6 -20.75 18 -22.1Q16.45 -23.45 14.25 -23.45Q10.9 -23.45 8.8 -21Q6.7 -18.55 6.7 -13.3Q6.7 -7.95 8.7 -5.5Q10.75 -3.1 14 -3.1Q16.65 -3.1 18.4 -4.7Q20.15 -6.35 20.65 -9.75" />
</g>
<g id="PathID_164" transform="matrix(0.73259, 0, 0, 0.320265, 310.2, 243.05)" opacity="1">
</g>
<g id="PathID_165" transform="matrix(0.73259, 0, 0, 0.320265, 328.95, 243.05)" opacity="1">
<path style="fill:#FFF6F4;fill-opacity:0.129412" d="M1.7 -13.25Q1.7 -20.65 5.8 -24.2Q9.2 -27.15 14.15 -27.15Q19.6 -27.15 23.1 -23.55Q26.6 -19.95 26.6 -13.65Q26.6 -8.5 25.05 -5.55Q23.5 -2.65 20.55 -1Q17.6 0.6 14.15 0.6Q8.55 0.6 5.1 -2.95Q1.7 -6.55 1.7 -13.25M6.35 -13.25Q6.35 -8.15 8.55 -5.6Q10.75 -3.1 14.15 -3.1Q17.5 -3.1 19.7 -5.6Q21.95 -8.15 21.95 -13.4Q21.95 -18.3 19.7 -20.85Q17.45 -23.4 14.15 -23.4Q10.75 -23.4 8.55 -20.85Q6.35 -18.35 6.35 -13.25" />
</g>
<g id="PathID_166" transform="matrix(0.73259, 0, 0, 0.320265, 328.95, 243.05)" opacity="1">
</g>
<g id="PathID_167" transform="matrix(0.73259, 0, 0, 0.320265, 349.8, 243.05)" opacity="1">
<path style="fill:#FFF6F4;fill-opacity:0.129412" d="M3.35 0L3.35 -26.55L7.35 -26.55L7.35 -22.8Q8.6 -24.75 10.65 -25.95Q12.75 -27.15 15.45 -27.15Q18.4 -27.15 20.25 -25.9Q22.15 -24.7 22.95 -22.5Q26.1 -27.15 31.2 -27.15Q35.15 -27.15 37.3 -24.95Q39.45 -22.75 39.45 -18.2L39.45 0L34.95 0L34.95 -16.7Q34.95 -19.4 34.5 -20.6Q34.05 -21.8 32.9 -22.5Q31.75 -23.25 30.2 -23.25Q27.4 -23.25 25.5 -21.35Q23.65 -19.5 23.65 -15.4L23.65 0L19.15 0L19.15 -17.25Q19.15 -20.25 18.05 -21.75Q16.95 -23.25 14.45 -23.25Q12.55 -23.25 10.9 -22.25Q9.3 -21.25 8.55 -19.3Q7.85 -17.4 7.85 -13.75L7.85 0L3.35 0" />
</g>
<g id="PathID_168" transform="matrix(0.73259, 0, 0, 0.320265, 349.8, 243.05)" opacity="1">
</g>
<g id="PathID_169" transform="matrix(0.195347, 0, 0, 0.195347, 210.55, 159.4)" opacity="1">
<path style="fill:#E23C7A;fill-opacity:1" d="M31.15 -31.2Q44.1 -18.25 44.1 0Q44.1 18.25 31.15 31.15Q18.25 44.1 0 44.1Q-18.25 44.1 -31.2 31.15Q-44.15 18.25 -44.15 0Q-44.15 -18.25 -31.2 -31.2Q-18.25 -44.1 0 -44.1Q18.25 -44.1 31.15 -31.2" />
</g>
<g id="PathID_170" transform="matrix(0.195347, 0, 0, 0.195347, 210.55, 159.4)" opacity="1">
</g>
<g id="PathID_171" transform="matrix(0.195347, 0, 0, 0.195347, 194.05, 146.15)" opacity="1">
<path style="fill:#1797E0;fill-opacity:1" d="M26 -26Q36.8 -15.2 36.8 0Q36.8 15.2 26 26Q15.2 36.8 0 36.8Q-15.2 36.8 -26 26Q-36.8 15.2 -36.8 0Q-36.8 -15.2 -26 -26Q-15.2 -36.8 0 -36.8Q15.2 -36.8 26 -26" />
</g>
<g id="PathID_172" transform="matrix(0.195347, 0, 0, 0.195347, 194.05, 146.15)" opacity="1">
</g>
<g id="PathID_173" transform="matrix(0.195347, 0, 0, 0.195347, 174.8, 144)" opacity="1">
<path style="fill:#AADC0B;fill-opacity:1" d="M-0.05 -33.75Q13.95 -33.75 23.85 -23.9Q33.75 -14 33.75 0Q33.75 14 23.85 23.85Q13.95 33.75 -0.05 33.75Q-14 33.75 -23.9 23.85Q-33.8 14 -33.8 0Q-33.8 -14 -23.9 -23.9Q-14 -33.75 -0.05 -33.75" />
</g>
<g id="PathID_174" transform="matrix(0.195347, 0, 0, 0.195347, 174.8, 144)" opacity="1">
</g>
<g id="PathID_175" transform="matrix(0.195347, 0, 0, 0.195347, 158.6, 151.65)" opacity="1">
<path style="fill:#FF8348;fill-opacity:1" d="M-21.2 -21.15Q-12.5 -29.8 -0.05 -29.8Q12.45 -29.8 21.1 -21.15Q29.8 -12.5 29.8 0Q29.8 12.45 21.1 21.1Q12.45 29.8 -0.05 29.8Q-12.5 29.8 -21.2 21.1Q-29.85 12.45 -29.85 -0.05Q-29.85 -12.5 -21.2 -21.15" />
</g>
<g id="PathID_176" transform="matrix(0.195347, 0, 0, 0.195347, 158.6, 151.65)" opacity="1">
</g>
<g id="PathID_177" transform="matrix(0.195347, 0, 0, 0.195347, 152.25, 166.2)" opacity="1">
<path style="fill:#FAE721;fill-opacity:1" d="M-0.05 -26.8Q10.95 -26.8 18.85 -18.9Q26.75 -10.95 26.75 0Q26.75 10.95 18.85 18.85Q10.95 26.75 -0.05 26.75Q-11 26.75 -18.9 18.85Q-26.8 10.95 -26.8 0Q-26.8 -10.95 -18.9 -18.9Q-11 -26.8 -0.05 -26.8" />
</g>
<g id="PathID_178" transform="matrix(0.195347, 0, 0, 0.195347, 152.25, 166.2)" opacity="1">
</g>
<g id="PathID_179" transform="matrix(0.195347, 0, 0, 0.195347, 154.7, 181.45)" opacity="1">
<path style="fill:#E23C7A;fill-opacity:1" d="M16.1 -16.1Q22.8 -9.4 22.8 0Q22.8 9.45 16.1 16.15Q9.45 22.85 0 22.85Q-9.45 22.85 -16.15 16.15Q-22.8 9.45 -22.8 0Q-22.8 -9.4 -16.15 -16.1Q-9.45 -22.8 0 -22.8Q9.45 -22.8 16.1 -16.1" />
</g>
<g id="PathID_180" transform="matrix(0.195347, 0, 0, 0.195347, 154.7, 181.45)" opacity="1">
</g>
<g id="PathID_181" transform="matrix(0.195347, 0, 0, 0.195347, 163.85, 191.95)" opacity="1">
<path style="fill:#1797E0;fill-opacity:1" d="M-0.05 -19.75Q8.15 -19.75 13.95 -14Q19.75 -8.2 19.75 0Q19.75 8.2 13.95 14Q8.15 19.8 -0.05 19.8Q-8.25 19.8 -14.05 14Q-19.8 8.2 -19.8 0Q-19.8 -8.2 -14.05 -14Q-8.25 -19.75 -0.05 -19.75" />
</g>
<g id="PathID_182" transform="matrix(0.195347, 0, 0, 0.195347, 163.85, 191.95)" opacity="1">
</g>
<g id="PathID_183" transform="matrix(0.195347, 0, 0, 0.195347, 174.1, 195.8)" opacity="1">
<path style="fill:#AADC0B;fill-opacity:1" d="M-0.05 -18.55Q7.6 -18.55 13.05 -13.1Q18.55 -7.6 18.55 0Q18.55 7.6 13.05 13.05Q7.6 18.55 -0.05 18.55Q-7.65 18.55 -13.15 13.05Q-18.6 7.6 -18.6 0Q-18.6 -7.6 -13.15 -13.1Q-7.65 -18.55 -0.05 -18.55" />
</g>
<g id="PathID_184" transform="matrix(0.195347, 0, 0, 0.195347, 174.1, 195.8)" opacity="1">
</g>
<g id="PathID_185" transform="matrix(0.195347, 0, 0, 0.195347, 183.25, 193.85)" opacity="1">
<path style="fill:#FF8348;fill-opacity:1" d="M-0.05 -16.4Q6.65 -16.4 11.5 -11.55Q16.4 -6.65 16.4 0.05Q16.4 6.75 11.5 11.6Q6.65 16.45 -0.05 16.45Q-6.7 16.45 -11.6 11.6Q-16.45 6.75 -16.45 0.05Q-16.45 -6.65 -11.6 -11.55Q-6.7 -16.4 -0.05 -16.4" />
</g>
<g id="PathID_186" transform="matrix(0.195347, 0, 0, 0.195347, 183.25, 193.85)" opacity="1">
</g>
<g id="PathID_187" transform="matrix(0.195347, 0, 0, 0.195347, 186.75, 186.65)" opacity="1">
<path style="fill:#FAE721;fill-opacity:1" d="M-0.05 -15.2Q6.35 -15.2 10.75 -10.8Q15.2 -6.35 15.2 0.05Q15.2 6.4 10.75 10.8Q6.35 15.25 -0.05 15.25Q-6.4 15.25 -10.85 10.8Q-15.25 6.4 -15.25 0Q-15.25 -6.35 -10.85 -10.8Q-6.4 -15.2 -0.05 -15.2" />
</g>
<g id="PathID_188" transform="matrix(0.195347, 0, 0, 0.195347, 186.75, 186.65)" opacity="1">
</g>
<g id="PathID_189" transform="matrix(0.195347, 0, 0, 0.195347, 184.25, 179.6)" opacity="1">
<path style="fill:#FF8348;fill-opacity:1" d="M-0.05 -13.4Q5.45 -13.4 9.4 -9.45Q13.4 -5.5 13.4 0Q13.4 5.45 9.4 9.4Q5.45 13.35 -0.05 13.35Q-5.5 13.35 -9.45 9.4Q-13.4 5.45 -13.4 -0.05Q-13.4 -5.5 -9.45 -9.45Q-5.5 -13.4 -0.05 -13.4" />
</g>
<g id="PathID_190" transform="matrix(0.195347, 0, 0, 0.195347, 184.25, 179.6)" opacity="1">
</g>
<g id="PathID_191" transform="matrix(0.195347, 0, 0, 0.195347, 177.9, 175.85)" opacity="1">
<path style="fill:#FAE721;fill-opacity:1" d="M8.35 -8.4Q11.85 -4.9 11.85 -0.05Q11.85 4.85 8.35 8.35Q4.85 11.85 0 11.85Q-4.85 11.85 -8.35 8.35Q-11.85 4.85 -11.85 -0.05Q-11.85 -4.9 -8.35 -8.4Q-4.85 -11.9 0 -11.9Q4.85 -11.9 8.35 -8.4" />
</g>
<g id="PathID_192" transform="matrix(0.195347, 0, 0, 0.195347, 177.9, 175.85)" opacity="1">
</g>
<g id="PathID_193" transform="matrix(0.195347, 0, 0, 0.195347, 175.55, 182.35)" opacity="1">
<path style="fill:#FAE721;fill-opacity:1" d="M8.35 -8.35Q11.85 -4.85 11.85 0.05Q11.85 4.9 8.35 8.4Q4.85 11.9 0 11.9Q-4.85 11.9 -8.35 8.4Q-11.85 4.9 -11.85 0.05Q-11.85 -4.85 -8.35 -8.35Q-4.85 -11.85 0 -11.85Q4.85 -11.85 8.35 -8.35" />
</g>
<g id="PathID_194" transform="matrix(0.195347, 0, 0, 0.195347, 175.55, 182.35)" opacity="1">
</g>
<g id="PathID_195" transform="matrix(0.195347, 0, 0, 0.195347, 169.25, 178.7)" opacity="1">
<path style="fill:#FF8348;fill-opacity:1" d="M9.45 -9.45Q13.4 -5.5 13.4 0Q13.4 5.45 9.45 9.4Q5.5 13.35 0.05 13.35Q-5.45 13.35 -9.4 9.4Q-13.4 5.45 -13.4 -0.05Q-13.4 -5.5 -9.4 -9.45Q-5.45 -13.4 0.05 -13.4Q5.5 -13.4 9.45 -9.45" />
</g>
<g id="PathID_196" transform="matrix(0.195347, 0, 0, 0.195347, 169.25, 178.7)" opacity="1">
</g>
<g id="PathID_197" transform="matrix(0.195347, 0, 0, 0.195347, 166.65, 171.6)" opacity="1">
<path style="fill:#FAE721;fill-opacity:1" d="M10.8 -10.8Q15.2 -6.4 15.2 0Q15.2 6.35 10.8 10.8Q6.35 15.2 0 15.2Q-6.4 15.2 -10.8 10.8Q-15.25 6.35 -15.25 -0.05Q-15.25 -6.4 -10.8 -10.8Q-6.4 -15.25 0 -15.25Q6.35 -15.25 10.8 -10.8" />
</g>
<g id="PathID_198" transform="matrix(0.195347, 0, 0, 0.195347, 166.65, 171.6)" opacity="1">
</g>
<g id="PathID_199" transform="matrix(0.195347, 0, 0, 0.195347, 170.2, 164.4)" opacity="1">
<path style="fill:#FF8348;fill-opacity:1" d="M11.55 -11.6Q16.4 -6.75 16.4 -0.05Q16.4 6.65 11.55 11.55Q6.65 16.4 0 16.4Q-6.7 16.4 -11.55 11.55Q-16.45 6.65 -16.45 -0.05Q-16.45 -6.75 -11.55 -11.6Q-6.7 -16.45 0 -16.45Q6.65 -16.45 11.55 -11.6" />
</g>
<g id="PathID_200" transform="matrix(0.195347, 0, 0, 0.195347, 170.2, 164.4)" opacity="1">
</g>
<g id="PathID_201" transform="matrix(0.195347, 0, 0, 0.195347, 179.35, 162.4)" opacity="1">
<path style="fill:#AADC0B;fill-opacity:1" d="M13.1 -13.05Q18.55 -7.6 18.55 0Q18.55 7.6 13.1 13.1Q7.6 18.55 0 18.55Q-7.65 18.55 -13.1 13.1Q-18.6 7.6 -18.6 0Q-18.6 -7.6 -13.1 -13.05Q-7.65 -18.55 0 -18.55Q7.6 -18.55 13.1 -13.05" />
</g>
<g id="PathID_202" transform="matrix(0.195347, 0, 0, 0.195347, 179.35, 162.4)" opacity="1">
</g>
<g id="PathID_203" transform="matrix(0.195347, 0, 0, 0.195347, 189.55, 166.3)" opacity="1">
<path style="fill:#1797E0;fill-opacity:1" d="M14 -14Q19.75 -8.2 19.75 0Q19.75 8.2 14 14Q8.2 19.75 0 19.75Q-8.2 19.75 -14 14Q-19.8 8.2 -19.8 0Q-19.8 -8.2 -14 -14Q-8.2 -19.8 0 -19.8Q8.2 -19.8 14 -14" />
</g>
<g id="PathID_204" transform="matrix(0.195347, 0, 0, 0.195347, 189.55, 166.3)" opacity="1">
</g>
<g id="PathID_205" transform="matrix(0.195347, 0, 0, 0.195347, 198.75, 176.8)" opacity="1">
<path style="fill:#E23C7A;fill-opacity:1" d="M16.15 -16.15Q22.8 -9.45 22.8 0Q22.8 9.4 16.15 16.1Q9.45 22.8 0 22.8Q-9.45 22.8 -16.1 16.1Q-22.8 9.4 -22.8 0Q-22.8 -9.45 -16.1 -16.15Q-9.45 -22.85 0 -22.85Q9.45 -22.85 16.15 -16.15" />
</g>
<g id="PathID_206" transform="matrix(0.195347, 0, 0, 0.195347, 198.75, 176.8)" opacity="1">
</g>
<g id="PathID_207" transform="matrix(0.195347, 0, 0, 0.195347, 201.2, 192.05)" opacity="1">
<path style="fill:#FAE721;fill-opacity:1" d="M18.85 -18.85Q26.75 -10.95 26.75 0Q26.75 10.95 18.85 18.9Q10.95 26.8 0 26.8Q-11 26.8 -18.9 18.9Q-26.8 10.95 -26.8 0Q-26.8 -10.95 -18.9 -18.85Q-11 -26.75 0 -26.75Q10.95 -26.75 18.85 -18.85" />
</g>
<g id="PathID_208" transform="matrix(0.195347, 0, 0, 0.195347, 201.2, 192.05)" opacity="1">
</g>
<g id="PathID_209" transform="matrix(0.195347, 0, 0, 0.195347, 194.85, 206.55)" opacity="1">
<path style="fill:#FF8348;fill-opacity:1" d="M21.15 -21.1Q29.8 -12.45 29.8 0.05Q29.8 12.5 21.15 21.15Q12.45 29.8 0 29.8Q-12.5 29.8 -21.15 21.15Q-29.85 12.5 -29.85 0Q-29.85 -12.45 -21.15 -21.1Q-12.5 -29.8 0 -29.8Q12.45 -29.8 21.15 -21.1" />
</g>
<g id="PathID_210" transform="matrix(0.195347, 0, 0, 0.195347, 194.85, 206.55)" opacity="1">
</g>
<g id="PathID_211" transform="matrix(0.195347, 0, 0, 0.195347, 178.65, 214.3)" opacity="1">
<path style="fill:#AADC0B;fill-opacity:1" d="M23.85 -23.85Q33.75 -14 33.75 0Q33.75 14 23.85 23.9Q13.95 33.75 0 33.75Q-14 33.75 -23.9 23.9Q-33.8 14 -33.8 0Q-33.8 -14 -23.9 -23.85Q-14 -33.75 0 -33.75Q13.95 -33.75 23.85 -23.85" />
</g>
<g id="PathID_212" transform="matrix(0.195347, 0, 0, 0.195347, 178.65, 214.3)" opacity="1">
</g>
<g id="PathID_213" transform="matrix(0.195347, 0, 0, 0.195347, 159.4, 212.1)" opacity="1">
<path style="fill:#1797E0;fill-opacity:1" d="M26 -26Q36.8 -15.2 36.8 0Q36.8 15.2 26 26Q15.2 36.8 0 36.8Q-15.2 36.8 -26 26Q-36.8 15.2 -36.8 0Q-36.8 -15.2 -26 -26Q-15.2 -36.8 0 -36.8Q15.2 -36.8 26 -26" />
</g>
<g id="PathID_214" transform="matrix(0.195347, 0, 0, 0.195347, 159.4, 212.1)" opacity="1">
</g>
<g id="PathID_215" transform="matrix(0.195347, 0, 0, 0.195347, 142.85, 198.85)" opacity="1">
<path style="fill:#E23C7A;fill-opacity:1" d="M-0.05 -44.1Q18.2 -44.1 31.15 -31.15Q44.1 -18.25 44.1 0Q44.1 18.25 31.15 31.2Q18.2 44.1 -0.05 44.1Q-18.3 44.1 -31.2 31.2Q-44.15 18.25 -44.15 0Q-44.15 -18.25 -31.2 -31.15Q-18.3 -44.1 -0.05 -44.1" />
</g>
<g id="PathID_216" transform="matrix(0.195347, 0, 0, 0.195347, 142.85, 198.85)" opacity="1">
</g>
</svg>
